<?xml version="1.0" encoding="utf-8"?>
<!-- Generator: Adobe Illustrator 16.0.3, SVG Export Plug-In . SVG Version: 6.00 Build 0)  -->
<!DOCTYPE svg PUBLIC "-//W3C//DTD SVG 1.1//EN" "http://www.w3.org/Graphics/SVG/1.1/DTD/svg11.dtd">
<svg version="1.1" id="Ebene_1" xmlns="http://www.w3.org/2000/svg" xmlns:xlink="http://www.w3.org/1999/xlink" x="0px" y="0px"
	 width="176.471px" height="84.615px" viewBox="10.781 11.197 176.471 84.615"
	 enable-background="new 10.781 11.197 176.471 84.615" xml:space="preserve">
<g>
	<path fill="#878787" d="M13.717,95.813h-2.936l9.277-21.854h3.133l9.323,21.854h-3.133l-2.827-6.877h-7.229l0.78-2.293h5.502
		l-4.082-9.902L13.717,95.813z"/>
	<path fill="#878787" d="M38.781,73.958v21.854h-2.828V73.958H38.781z"/>
	<path fill="#878787" d="M69.271,73.958v2.293H57.809v7.336h10.928v2.293H57.809v7.642H69.5v2.293H54.98V73.958H69.271z"/>
	<path fill="#878787" d="M80.168,84.886l-8.604-10.928h3.438L81.88,82.7l6.878-8.742h3.438l-8.59,10.928l8.59,10.929h-3.438
		l-6.878-8.742l-6.878,8.742h-3.438L80.168,84.886z"/>
	<path fill="#878787" d="M95.328,95.813V73.958h8.865c4.462,0,6.692,1.952,6.692,5.854c0,4.248-3.052,6.843-9.153,7.778
		l-0.582-2.384c4.483-0.662,6.726-2.42,6.726-5.271c0-2.426-1.313-3.639-3.942-3.639h-5.776v19.518h-2.829V95.813z"/>
	<path fill="#878787" d="M128.921,73.958v2.293h-11.462v7.336h10.928v2.293h-10.928v7.642h11.691v2.293H114.63V73.958H128.921z"/>
	<path fill="#878787" d="M133.429,95.813V73.958h9.323c4.157,0,6.235,1.748,6.235,5.242c0,2.843-2.032,4.946-6.099,6.313
		l7.504,10.302h-3.729l-6.953-9.827v-1.851c4.177-0.662,6.266-2.267,6.266-4.813c0-2.019-1.16-3.026-3.483-3.026h-6.235v19.517
		h-2.829V95.813z"/>
	<path fill="#878787" d="M168.123,73.958v2.293h-6.878v19.563h-2.827V76.251h-6.878v-2.293H168.123z"/>
	<path fill="#878787" d="M171.18,95.05v-2.599c2.292,0.814,4.769,1.223,7.428,1.223c3.76,0,5.64-1.376,5.64-4.126
		c0-2.344-1.386-3.516-4.157-3.516h-2.812c-4.575,0-6.862-1.986-6.862-5.961c0-4.177,2.929-6.267,8.788-6.267
		c2.547,0,4.916,0.307,7.106,0.917v2.6c-2.19-0.815-4.561-1.224-7.106-1.224c-3.974,0-5.961,1.324-5.961,3.974
		c0,2.344,1.345,3.516,4.035,3.516h2.812c4.656,0,6.985,1.986,6.985,5.961c0,4.279-2.823,6.418-8.468,6.418
		C175.947,95.966,173.472,95.661,171.18,95.05z"/>
</g>
<g>
	<path fill="#206287" d="M20.125,58.597h-9.017l20.12-47.399h9.447l20.551,47.399h-9.447l-5.402-12.928H30.633l3.016-7.623h9.547
		l-7.459-17.801L20.125,58.597z"/>
	<path fill="#206287" d="M67.027,58.597V11.197h9.116L92.22,47.161l15.744-35.965h8.784v47.399h-8.121V25.582l-12.86,33.015h-7.491
		L75.148,25.582v33.015H67.027z"/>
	<path fill="#206287" d="M131.564,58.597h-9.016l20.12-47.399h9.446l20.552,47.399h-9.447l-5.403-12.928h-15.743l3.017-7.623h9.546
		l-7.458-17.801L131.564,58.597z"/>
	<path fill="#206287" d="M187.252,11.196v47.399h-8.784V11.196H187.252z"/>
</g>
</svg>
