<?xml version="1.0" encoding="UTF-8" standalone="no"?>
<svg
   xmlns:dc="http://purl.org/dc/elements/1.1/"
   xmlns:cc="http://creativecommons.org/ns#"
   xmlns:rdf="http://www.w3.org/1999/02/22-rdf-syntax-ns#"
   xmlns:svg="http://www.w3.org/2000/svg"
   xmlns="http://www.w3.org/2000/svg"
   xmlns:xlink="http://www.w3.org/1999/xlink"
   xmlns:sodipodi="http://sodipodi.sourceforge.net/DTD/sodipodi-0.dtd"
   xmlns:inkscape="http://www.inkscape.org/namespaces/inkscape"
   version="1.1"
   id="Layer_1"
   x="0px"
   y="0px"
   viewBox="0 0 200 83.850174"
   xml:space="preserve"
   sodipodi:docname="de-hub.svg"
   width="200"
   height="83.850174"
   inkscape:version="1.0.1 (3bc2e813f5, 2020-09-07)"><metadata
   id="metadata167"><rdf:RDF><cc:Work
       rdf:about=""><dc:format>image/svg+xml</dc:format><dc:type
         rdf:resource="http://purl.org/dc/dcmitype/StillImage" /><dc:title></dc:title></cc:Work></rdf:RDF></metadata><defs
   id="defs165" /><sodipodi:namedview
   pagecolor="#ffffff"
   bordercolor="#666666"
   borderopacity="1"
   objecttolerance="10"
   gridtolerance="10"
   guidetolerance="10"
   inkscape:pageopacity="0"
   inkscape:pageshadow="2"
   inkscape:window-width="1920"
   inkscape:window-height="1017"
   id="namedview163"
   showgrid="false"
   fit-margin-top="0"
   fit-margin-left="0"
   fit-margin-right="0"
   fit-margin-bottom="0"
   inkscape:zoom="2.8495077"
   inkscape:cx="134.08133"
   inkscape:cy="52.043904"
   inkscape:window-x="-8"
   inkscape:window-y="-8"
   inkscape:window-maximized="1"
   inkscape:current-layer="Layer_1" />
<style
   type="text/css"
   id="style2">
	.st0{fill:#E3000F;}
	.st1{clip-path:url(#SVGID_1_);}
	.st2{clip-path:url(#SVGID_2_);}
	.st3{clip-path:url(#SVGID_3_);}
	.st4{clip-path:url(#SVGID_4_);}
	.st5{clip-path:url(#SVGID_5_);}
	.st6{clip-path:url(#SVGID_6_);fill:#E3000F;}
	.st7{clip-path:url(#SVGID_7_);fill:#F8D200;}
	.st8{clip-path:url(#SVGID_8_);}
</style>
<g
   id="g160"
   transform="matrix(0.52243098,0,0,0.52243098,25.108537,-11.441238)">
	<g
   id="g64">
		<path
   class="st0"
   d="m 27.3,139.6 5.5,-6.6 h 4.5 l -6.5,7.6 7,8.4 H 33 l -5.7,-7.1 v 7.1 h -3.7 v -16 h 3.7 z"
   id="path4" />
		<path
   class="st0"
   d="m 67.7,145.9 h -6 l -1.2,3 H 56.7 L 63.1,133 h 3.4 l 6.3,15.9 H 69 Z m -1,-2.8 -2,-5.4 -2,5.4 z"
   id="path6" />
		<path
   class="st0"
   d="m 98.3,133 c 2,0 3.3,0.7 4.1,1.4 0.7,0.6 1.4,1.8 1.4,3.6 0,1 -0.2,2.2 -1.2,3.3 -0.5,0.5 -1.3,1 -2.2,1.2 l 4.9,6.5 h -4.5 l -4.3,-6.3 v 6.3 h -3.7 v -16 z m -1.9,7.2 h 0.8 c 0.7,0 1.6,-0.1 2.2,-0.7 0.3,-0.3 0.6,-0.8 0.6,-1.6 0,-0.9 -0.4,-1.4 -0.7,-1.6 -0.6,-0.5 -1.6,-0.5 -2,-0.5 h -0.9 z"
   id="path8" />
		<path
   class="st0"
   d="m 129.1,133 v 12.8 h 4.9 v 3.1 h -8.6 V 133 Z"
   id="path10" />
		<path
   class="st0"
   d="m 162.5,136.9 c -1.2,-1.1 -2.2,-1.1 -2.7,-1.1 -0.5,0 -1.1,0.1 -1.6,0.5 -0.2,0.2 -0.4,0.6 -0.4,1 0,0.4 0.1,0.7 0.4,0.9 0.4,0.4 0.9,0.5 2,0.9 l 1.2,0.5 c 0.7,0.3 1.6,0.6 2.2,1.2 0.9,0.9 1.2,2 1.2,3 0,1.7 -0.6,3.1 -1.4,3.9 -1.4,1.5 -3.5,1.6 -4.5,1.6 -1.1,0 -2.2,-0.2 -3.2,-0.7 -0.8,-0.4 -1.7,-1.1 -2.3,-1.7 l 1.9,-2.6 c 0.4,0.4 1.1,1 1.5,1.2 0.6,0.4 1.3,0.6 2,0.6 0.5,0 1.1,-0.1 1.7,-0.6 0.3,-0.3 0.6,-0.7 0.6,-1.3 0,-0.5 -0.2,-0.9 -0.5,-1.1 -0.4,-0.4 -1.4,-0.7 -1.9,-0.9 l -1.3,-0.5 c -0.7,-0.3 -1.6,-0.6 -2.2,-1.3 -0.8,-0.9 -1,-2 -1,-2.8 0,-1.4 0.4,-2.6 1.4,-3.6 1.1,-1.1 2.5,-1.5 3.9,-1.5 1.1,0 2.9,0.2 4.7,1.6 z"
   id="path12" />
		<path
   class="st0"
   d="m 191.2,133 c 2,0 3.3,0.7 4.1,1.4 0.7,0.6 1.4,1.8 1.4,3.6 0,1 -0.2,2.2 -1.2,3.3 -0.5,0.5 -1.3,1 -2.2,1.2 l 4.9,6.5 h -4.5 l -4.3,-6.3 v 6.3 h -3.7 v -16 z m -1.9,7.2 h 0.8 c 0.7,0 1.6,-0.1 2.2,-0.7 0.3,-0.3 0.6,-0.8 0.6,-1.6 0,-0.9 -0.4,-1.4 -0.7,-1.6 -0.6,-0.5 -1.6,-0.5 -2,-0.5 h -0.9 z"
   id="path14" />
		<path
   class="st0"
   d="m 231.8,142.4 c 0,1.5 -0.2,3.4 -1.8,5 -1.5,1.6 -3.3,1.8 -5,1.8 -1.7,0 -3.4,-0.2 -5,-1.8 -1.6,-1.6 -1.8,-3.5 -1.8,-5 V 133 h 3.7 v 9.3 c 0,0.7 0,1.9 0.8,2.7 0.6,0.7 1.5,0.8 2.2,0.8 0.7,0 1.6,-0.1 2.2,-0.8 0.8,-0.8 0.8,-2 0.8,-2.7 V 133 h 3.7 v 9.4 z"
   id="path16" />
		<path
   class="st0"
   d="m 257.2,139 h 6.4 v -6 h 3.7 v 15.9 h -3.7 v -6.8 h -6.4 v 6.8 h -3.7 V 133 h 3.7 z"
   id="path18" />
		<path
   class="st0"
   d="m 297.9,136.1 h -5.3 v 3.1 h 5.1 v 3.1 h -5.1 v 3.5 h 5.3 v 3.1 h -9 V 133 h 9 z"
   id="path20" />
		<path
   class="st0"
   d="m 32.7,172.4 h -6.8 l -1.9,4.5 h -2 l 7.3,-16.7 7.1,16.7 h -2 z m -0.7,-1.7 -2.7,-6.4 -2.7,6.4 z"
   id="path22" />
		<path
   class="st0"
   d="M 40.3,167 H 42 v 1.1 c 0.2,-0.3 0.9,-1.3 2.2,-1.3 0.5,0 1.1,0.2 1.5,0.4 l -0.8,1.6 c -0.4,-0.3 -0.7,-0.3 -1,-0.3 -0.7,0 -1.1,0.3 -1.4,0.6 -0.3,0.4 -0.6,1 -0.6,2.7 v 5.2 h -1.7 v -10 z"
   id="path24" />
		<path
   class="st0"
   d="m 51.5,168.5 v 8.3 h -1.7 v -8.3 H 48.7 V 167 h 1.1 v -3.6 h 1.7 v 3.6 h 1.7 v 1.6 h -1.7 z"
   id="path26" />
		<path
   class="st0"
   d="m 57.6,162 c 0.7,0 1.2,0.5 1.2,1.2 0,0.7 -0.5,1.2 -1.2,1.2 -0.7,0 -1.2,-0.5 -1.2,-1.2 0,-0.7 0.6,-1.2 1.2,-1.2 z m 0.9,5 v 9.9 H 56.8 V 167 Z"
   id="path28" />
		<path
   class="st0"
   d="m 65.4,168.5 v 8.3 h -1.7 v -8.3 h -1 V 167 h 1 v -3.7 c 0,-1.1 0.1,-1.9 0.6,-2.6 0.5,-0.7 1.4,-1.5 3.3,-1.5 0.8,0 2.4,0.1 3.3,1.5 0.5,0.9 0.6,1.8 0.6,2.6 v 0.4 h -1.7 v -0.4 c 0,-0.4 0,-1.1 -0.3,-1.6 -0.3,-0.4 -0.8,-0.8 -1.8,-0.8 -1,0 -1.5,0.3 -1.8,0.8 -0.3,0.5 -0.3,1 -0.3,1.6 V 167 H 68 v 1.6 h -2.6 z m 6,-1.5 v 9.9 H 69.7 V 167 Z"
   id="path30" />
		<path
   class="st0"
   d="m 84.4,169.7 c -0.9,-1.1 -2.2,-1.5 -3.1,-1.5 -1.8,0 -3.5,1.3 -3.5,3.7 0,2.4 1.7,3.7 3.5,3.7 1,0 2.3,-0.5 3.2,-1.6 v 2.1 c -1.1,0.8 -2.2,1 -3.2,1 -3.1,0 -5.3,-2.2 -5.3,-5.2 0,-3 2.2,-5.3 5.3,-5.3 1.6,0 2.6,0.6 3.1,1 z"
   id="path32" />
		<path
   class="st0"
   d="m 89.8,162 c 0.7,0 1.2,0.5 1.2,1.2 0,0.7 -0.5,1.2 -1.2,1.2 -0.7,0 -1.2,-0.5 -1.2,-1.2 0,-0.7 0.6,-1.2 1.2,-1.2 z m 0.9,5 v 9.9 H 89 V 167 Z"
   id="path34" />
		<path
   class="st0"
   d="m 103.5,167 h 1.7 v 9.9 h -1.7 v -1.4 c -0.6,0.7 -1.6,1.7 -3.4,1.7 -2.5,0 -4.8,-1.8 -4.8,-5.3 0,-3.4 2.3,-5.2 4.8,-5.2 1.9,0 2.9,1 3.4,1.6 z m -6.5,4.9 c 0,2.1 1.2,3.7 3.3,3.7 2.1,0 3.3,-1.7 3.3,-3.7 0,-2.6 -1.8,-3.7 -3.3,-3.7 -1.7,0.1 -3.3,1.3 -3.3,3.7 z"
   id="path36" />
		<path
   class="st0"
   d="m 112.1,159.5 v 17.4 h -1.7 v -17.4 z"
   id="path38" />
		<path
   class="st0"
   d="m 126.9,160.9 v 15.9 h -1.8 v -15.9 z"
   id="path40" />
		<path
   class="st0"
   d="m 132.5,167 h 1.7 v 1.1 c 0.3,-0.4 1.2,-1.4 2.8,-1.4 1.2,0 2.2,0.5 2.8,1.4 0.5,0.7 0.6,1.6 0.6,2.7 v 6.1 h -1.7 v -6.1 c 0,-0.6 0,-1.3 -0.5,-1.8 -0.3,-0.4 -0.9,-0.7 -1.6,-0.7 -0.6,0 -1.2,0.2 -1.7,0.8 -0.7,0.8 -0.7,2 -0.7,2.7 v 5.2 h -1.7 z"
   id="path42" />
		<path
   class="st0"
   d="m 147.5,168.5 v 8.3 h -1.7 v -8.3 h -1.1 V 167 h 1.1 v -3.6 h 1.7 v 3.6 h 1.7 v 1.6 h -1.7 z"
   id="path44" />
		<path
   class="st0"
   d="m 161.5,174.4 c -0.3,0.5 -0.7,1.1 -1.2,1.6 -0.9,0.8 -2,1.2 -3.3,1.2 -2.4,0 -4.9,-1.5 -4.9,-5.2 0,-3 1.8,-5.3 4.8,-5.3 1.9,0 3.2,1 3.8,1.8 0.6,0.9 1,2.4 0.9,3.7 h -7.7 c 0,2.1 1.4,3.4 3.2,3.4 0.8,0 1.5,-0.2 2,-0.7 0.5,-0.4 0.8,-0.9 1,-1.4 z m -1.7,-3.6 c -0.3,-1.6 -1.5,-2.6 -2.9,-2.6 -1.5,0 -2.7,1.1 -2.9,2.6 z"
   id="path46" />
		<path
   class="st0"
   d="m 167.9,159.5 v 17.4 h -1.7 v -17.4 z"
   id="path48" />
		<path
   class="st0"
   d="m 174.8,159.5 v 17.4 H 173 v -17.4 z"
   id="path50" />
		<path
   class="st0"
   d="m 180.8,162 c 0.7,0 1.2,0.5 1.2,1.2 0,0.7 -0.5,1.2 -1.2,1.2 -0.7,0 -1.2,-0.5 -1.2,-1.2 0,-0.7 0.5,-1.2 1.2,-1.2 z m 0.8,5 v 9.9 h -1.7 V 167 Z"
   id="path52" />
		<path
   class="st0"
   d="m 194.4,167 h 1.7 v 9.7 c 0,1.1 0,2.6 -1,3.9 -0.7,1 -2.1,1.8 -4,1.8 -1.7,0 -2.9,-0.7 -3.5,-1.3 -0.7,-0.7 -1.3,-1.7 -1.3,-3.2 h 1.7 c 0,0.8 0.3,1.6 0.8,2.1 0.7,0.8 1.6,1 2.4,1 1.2,0 2.1,-0.4 2.6,-1.4 0.5,-0.8 0.5,-1.7 0.5,-2.5 v -1.4 c -0.6,0.7 -1.6,1.7 -3.4,1.7 -1.5,0 -2.6,-0.6 -3.4,-1.3 -0.7,-0.7 -1.4,-1.9 -1.4,-3.9 0,-1.9 0.7,-3.1 1.4,-3.8 0.8,-0.8 2.1,-1.3 3.4,-1.3 1.5,0 2.6,0.6 3.4,1.6 V 167 Z m -5.4,2.2 c -0.8,0.9 -1,1.9 -1,2.7 0,0.9 0.2,2 1.1,2.9 0.5,0.5 1.2,0.8 2.1,0.8 0.9,0 1.6,-0.3 2.2,-0.8 0.7,-0.6 1.1,-1.7 1.1,-2.9 0,-1.2 -0.4,-2.2 -1.1,-2.8 -0.5,-0.5 -1.4,-0.9 -2.2,-0.9 -1,0.1 -1.8,0.5 -2.2,1 z"
   id="path54" />
		<path
   class="st0"
   d="m 210.1,174.4 c -0.3,0.5 -0.7,1.1 -1.2,1.6 -0.9,0.8 -2,1.2 -3.3,1.2 -2.4,0 -4.9,-1.5 -4.9,-5.2 0,-3 1.8,-5.3 4.8,-5.3 1.9,0 3.2,1 3.8,1.8 0.6,0.9 1,2.4 0.9,3.7 h -7.7 c 0,2.1 1.4,3.4 3.2,3.4 0.8,0 1.5,-0.2 2,-0.7 0.5,-0.4 0.8,-0.9 1,-1.4 z m -1.7,-3.6 c -0.3,-1.6 -1.5,-2.6 -2.9,-2.6 -1.5,0 -2.7,1.1 -2.9,2.6 z"
   id="path56" />
		<path
   class="st0"
   d="m 214.7,167 h 1.7 v 1.1 c 0.3,-0.4 1.2,-1.4 2.8,-1.4 1.2,0 2.2,0.5 2.8,1.4 0.5,0.7 0.6,1.6 0.6,2.7 v 6.1 H 221 v -6.1 c 0,-0.6 0,-1.3 -0.5,-1.8 -0.3,-0.4 -0.9,-0.7 -1.6,-0.7 -0.6,0 -1.2,0.2 -1.7,0.8 -0.7,0.8 -0.7,2 -0.7,2.7 v 5.2 h -1.7 v -10 z"
   id="path58" />
		<path
   class="st0"
   d="m 235.7,169.7 c -0.9,-1.1 -2.2,-1.5 -3.1,-1.5 -1.8,0 -3.5,1.3 -3.5,3.7 0,2.4 1.7,3.7 3.5,3.7 1,0 2.3,-0.5 3.2,-1.6 v 2.1 c -1.1,0.8 -2.2,1 -3.2,1 -3.1,0 -5.3,-2.2 -5.3,-5.2 0,-3 2.2,-5.3 5.3,-5.3 1.6,0 2.6,0.6 3.1,1 z"
   id="path60" />
		<path
   class="st0"
   d="m 249.1,174.4 c -0.3,0.5 -0.7,1.1 -1.2,1.6 -0.9,0.8 -2,1.2 -3.3,1.2 -2.4,0 -4.9,-1.5 -4.9,-5.2 0,-3 1.8,-5.3 4.8,-5.3 1.9,0 3.2,1 3.8,1.8 0.6,0.9 1,2.4 0.9,3.7 h -7.7 c 0,2.1 1.4,3.4 3.2,3.4 0.8,0 1.5,-0.2 2,-0.7 0.5,-0.4 0.8,-0.9 1,-1.4 z m -1.7,-3.6 c -0.3,-1.6 -1.5,-2.6 -2.9,-2.6 -1.5,0 -2.7,1.1 -2.9,2.6 z"
   id="path62" />
	</g>
	<g
   id="g76">
		<defs
   id="defs67">
			<path
   id="SVGID_32_"
   d="m 61.2,21.9 h 11.6 v 87.4 H 61.2 V 104 c -4.6,4.5 -9.7,6.7 -15.5,6.7 -6.9,0 -12.6,-2.5 -17.1,-7.6 -4.5,-5.1 -6.8,-11.6 -6.8,-19.2 0,-7.5 2.3,-13.8 6.8,-18.8 4.5,-5.1 10.1,-7.6 16.9,-7.6 5.9,0 11.1,2.4 15.8,7.2 V 21.9 Z m -27.5,62 c 0,4.8 1.3,8.8 3.9,11.8 2.6,3.1 6,4.6 10,4.6 4.3,0 7.8,-1.5 10.4,-4.4 2.6,-3.1 4,-7 4,-11.7 0,-4.7 -1.3,-8.6 -4,-11.7 -2.6,-3 -6.1,-4.5 -10.3,-4.5 -4,0 -7.3,1.5 -10,4.6 -2.7,3 -4,6.8 -4,11.3 z" />
		</defs>
		<use
   xlink:href="#SVGID_32_"
   style="clip-rule:evenodd;overflow:visible;fill-rule:evenodd"
   id="use69"
   x="0"
   y="0"
   width="100%"
   height="100%" />
		<clipPath
   id="SVGID_1_">
			<use
   xlink:href="#SVGID_32_"
   style="overflow:visible"
   id="use71"
   x="0"
   y="0"
   width="100%"
   height="100%" />
		</clipPath>
		<rect
   y="0"
   class="st1"
   width="94.699997"
   height="132.5"
   clip-path="url(#SVGID_1_)"
   id="rect74"
   x="0" />
	</g>
	<g
   id="g88">
		<defs
   id="defs79">
			<path
   id="SVGID_31_"
   d="m 130.8,86.8 h -36 c 0.3,4.1 1.7,7.4 4,9.9 2.4,2.4 5.4,3.6 9.1,3.6 2.9,0 5.3,-0.7 7.2,-2.1 1.9,-1.4 4,-3.9 6.3,-7.7 l 9.8,5.5 c -1.5,2.6 -3.1,4.8 -4.8,6.6 -1.7,1.8 -3.5,3.4 -5.4,4.6 -1.9,1.2 -4,2.1 -6.2,2.6 -2.2,0.6 -4.7,0.8 -7.3,0.8 -7.5,0 -13.5,-2.4 -18,-7.2 -4.5,-4.9 -6.8,-11.3 -6.8,-19.3 0,-8 2.2,-14.4 6.6,-19.3 4.4,-4.9 10.3,-7.3 17.6,-7.3 7.4,0 13.2,2.4 17.5,7.1 4.3,4.7 6.4,11.2 6.4,19.5 z m -11.9,-9.5 c -1.6,-6.2 -5.5,-9.3 -11.7,-9.3 -1.4,0 -2.7,0.2 -4,0.6 -1.2,0.4 -2.4,1.1 -3.4,1.9 -1,0.8 -1.9,1.8 -2.6,2.9 -0.7,1.1 -1.3,2.4 -1.6,3.9 z" />
		</defs>
		<use
   xlink:href="#SVGID_31_"
   style="clip-rule:evenodd;overflow:visible;fill-rule:evenodd"
   id="use81"
   x="0"
   y="0"
   width="100%"
   height="100%" />
		<clipPath
   id="SVGID_2_">
			<use
   xlink:href="#SVGID_31_"
   style="overflow:visible"
   id="use83"
   x="0"
   y="0"
   width="100%"
   height="100%" />
		</clipPath>
		<rect
   x="60.799999"
   y="35.599998"
   class="st2"
   width="92.300003"
   height="97"
   clip-path="url(#SVGID_2_)"
   id="rect86" />
	</g>
	<g
   id="g100">
		<defs
   id="defs91">
			<path
   id="SVGID_30_"
   d="m 176,21.9 h 11.6 V 63 c 4.1,-3.7 8.7,-5.6 13.7,-5.6 5.7,0 10.2,1.8 13.6,5.5 2.9,3.2 4.3,8.3 4.3,15.4 v 30.9 H 207.6 V 79.4 c 0,-4 -0.7,-7 -2.1,-8.8 -1.4,-1.8 -3.7,-2.7 -6.9,-2.7 -4.1,0 -6.9,1.3 -8.6,3.8 -1.6,2.6 -2.4,6.9 -2.4,13.1 v 24.4 H 176 V 21.9" />
		</defs>
		<use
   xlink:href="#SVGID_30_"
   style="clip-rule:evenodd;overflow:visible;fill-rule:evenodd"
   id="use93"
   x="0"
   y="0"
   width="100%"
   height="100%" />
		<clipPath
   id="SVGID_3_">
			<use
   xlink:href="#SVGID_30_"
   style="overflow:visible"
   id="use95"
   x="0"
   y="0"
   width="100%"
   height="100%" />
		</clipPath>
		<rect
   x="154.2"
   class="st3"
   width="86.900002"
   height="131.10001"
   clip-path="url(#SVGID_3_)"
   id="rect98"
   y="0" />
	</g>
	<g
   id="g112">
		<defs
   id="defs103">
			<path
   id="SVGID_29_"
   d="m 240.9,58.9 v 28.9 c 0,8.3 3.3,12.5 9.8,12.5 6.6,0 9.8,-4.2 9.8,-12.5 V 58.9 h 11.6 V 88 c 0,4 -0.5,7.5 -1.5,10.4 -1,2.6 -2.6,5 -5,7.1 -3.9,3.4 -8.9,5.1 -14.9,5.1 -6,0 -11,-1.7 -14.9,-5.1 -2.4,-2.1 -4.1,-4.5 -5.1,-7.1 -1,-2.3 -1.4,-5.8 -1.4,-10.4 V 58.9 h 11.6" />
		</defs>
		<use
   xlink:href="#SVGID_29_"
   style="clip-rule:evenodd;overflow:visible;fill-rule:evenodd"
   id="use105"
   x="0"
   y="0"
   width="100%"
   height="100%" />
		<clipPath
   id="SVGID_4_">
			<use
   xlink:href="#SVGID_29_"
   style="overflow:visible"
   id="use107"
   x="0"
   y="0"
   width="100%"
   height="100%" />
		</clipPath>
		<rect
   x="207.5"
   y="37"
   class="st4"
   width="86.599998"
   height="95.599998"
   clip-path="url(#SVGID_4_)"
   id="rect110" />
	</g>
	<g
   id="g124">
		<defs
   id="defs115">
			<path
   id="SVGID_28_"
   d="m 294.2,21.9 v 42.8 c 4.6,-4.8 9.9,-7.2 15.8,-7.2 6.8,0 12.4,2.5 16.9,7.6 4.5,5 6.8,11.3 6.8,18.8 0,7.8 -2.3,14.2 -6.8,19.2 -4.5,5 -10.2,7.6 -17.1,7.6 -5.8,0 -11,-2.2 -15.6,-6.7 v 5.3 H 282.6 V 21.9 Z m 27.6,62.5 c 0,-4.8 -1.3,-8.8 -3.9,-11.8 -2.6,-3.1 -6,-4.7 -9.9,-4.7 -4.3,0 -7.7,1.5 -10.4,4.5 -2.6,3 -4,6.8 -4,11.6 0,4.9 1.3,8.8 3.9,11.7 2.6,3 6,4.5 10.3,4.5 4,0 7.4,-1.5 10,-4.5 2.7,-2.9 4,-6.7 4,-11.3 z" />
		</defs>
		<use
   xlink:href="#SVGID_28_"
   style="clip-rule:evenodd;overflow:visible;fill-rule:evenodd"
   id="use117"
   x="0"
   y="0"
   width="100%"
   height="100%" />
		<clipPath
   id="SVGID_5_">
			<use
   xlink:href="#SVGID_28_"
   style="overflow:visible"
   id="use119"
   x="0"
   y="0"
   width="100%"
   height="100%" />
		</clipPath>
		<rect
   x="260.79999"
   y="0"
   class="st5"
   width="94.699997"
   height="132.5"
   clip-path="url(#SVGID_5_)"
   id="rect122" />
	</g>
	<g
   id="g136">
		<defs
   id="defs127">
			<path
   id="SVGID_27_"
   d="m 147.4,84.1 c 0,-1.7 0.6,-3.2 1.8,-4.4 1.2,-1.2 2.7,-1.8 4.4,-1.8 1.7,0 3.2,0.6 4.4,1.8 1.2,1.2 1.8,2.7 1.8,4.4 0,1.7 -0.6,3.2 -1.8,4.4 -1.2,1.2 -2.7,1.8 -4.4,1.8 -1.7,0 -3.2,-0.6 -4.4,-1.8 -1.2,-1.2 -1.8,-2.7 -1.8,-4.4" />
		</defs>
		<use
   xlink:href="#SVGID_27_"
   style="clip-rule:evenodd;overflow:visible;fill:#e3000f;fill-rule:evenodd"
   id="use129"
   x="0"
   y="0"
   width="100%"
   height="100%" />
		<clipPath
   id="SVGID_6_">
			<use
   xlink:href="#SVGID_27_"
   style="overflow:visible"
   id="use131"
   x="0"
   y="0"
   width="100%"
   height="100%" />
		</clipPath>
		<rect
   x="125.5"
   y="56"
   class="st6"
   width="56.200001"
   height="56.200001"
   clip-path="url(#SVGID_6_)"
   id="rect134" />
	</g>
	<g
   id="g148">
		<defs
   id="defs139">
			<path
   id="SVGID_26_"
   d="m 147.4,104.4 c 0,-1.7 0.6,-3.2 1.8,-4.4 1.2,-1.2 2.7,-1.8 4.4,-1.8 1.7,0 3.2,0.6 4.4,1.8 1.2,1.2 1.8,2.7 1.8,4.4 0,1.7 -0.6,3.2 -1.8,4.4 -1.2,1.2 -2.7,1.8 -4.4,1.8 -1.7,0 -3.2,-0.6 -4.4,-1.8 -1.2,-1.2 -1.8,-2.6 -1.8,-4.4" />
		</defs>
		<use
   xlink:href="#SVGID_26_"
   style="clip-rule:evenodd;overflow:visible;fill:#f8d200;fill-rule:evenodd"
   id="use141"
   x="0"
   y="0"
   width="100%"
   height="100%" />
		<clipPath
   id="SVGID_7_">
			<use
   xlink:href="#SVGID_26_"
   style="overflow:visible"
   id="use143"
   x="0"
   y="0"
   width="100%"
   height="100%" />
		</clipPath>
		<rect
   x="125.5"
   y="76.300003"
   class="st7"
   width="56.200001"
   height="56.200001"
   clip-path="url(#SVGID_7_)"
   id="rect146" />
	</g>
	<g
   id="g158">
		<defs
   id="defs151">
			<path
   id="SVGID_25_"
   d="m 147.4,63.8 c 0,-1.7 0.6,-3.2 1.8,-4.4 1.2,-1.2 2.7,-1.8 4.4,-1.8 1.7,0 3.2,0.6 4.4,1.8 1.2,1.2 1.8,2.7 1.8,4.4 0,1.7 -0.6,3.2 -1.8,4.4 -1.2,1.2 -2.7,1.8 -4.4,1.8 -1.7,0 -3.2,-0.6 -4.4,-1.8 -1.2,-1.2 -1.8,-2.7 -1.8,-4.4" />
		</defs>
		<clipPath
   id="SVGID_8_">
			<use
   xlink:href="#SVGID_25_"
   style="overflow:visible"
   id="use153"
   x="0"
   y="0"
   width="100%"
   height="100%" />
		</clipPath>
		<rect
   x="125.5"
   y="35.700001"
   class="st8"
   width="56.200001"
   height="56.200001"
   clip-path="url(#SVGID_8_)"
   id="rect156" />
	</g>
</g>
</svg>
