<?xml version="1.0" encoding="utf-8"?>
<!-- Generator: Adobe Illustrator 23.0.2, SVG Export Plug-In . SVG Version: 6.00 Build 0)  -->
<svg version="1.1" id="Layer_1" xmlns="http://www.w3.org/2000/svg" xmlns:xlink="http://www.w3.org/1999/xlink" x="0px" y="0px"
	 viewBox="0 0 355.5 184.7" style="enable-background:new 0 0 355.5 184.7;" xml:space="preserve">
<style type="text/css">
	.st0{fill:#E3000F;}
	.st1{clip-path:url(#SVGID_1_);}
	.st2{clip-path:url(#SVGID_2_);}
	.st3{clip-path:url(#SVGID_3_);}
	.st4{clip-path:url(#SVGID_4_);}
	.st5{clip-path:url(#SVGID_5_);}
	.st6{clip-path:url(#SVGID_6_);fill:#E3000F;}
	.st7{clip-path:url(#SVGID_7_);fill:#F8D200;}
	.st8{clip-path:url(#SVGID_8_);}
</style>
<g>
	<g>
		<path class="st0" d="M27.3,139.6l5.5-6.6h4.5l-6.5,7.6l7,8.4H33l-5.7-7.1v7.1h-3.7V133h3.7V139.6z"/>
		<path class="st0" d="M67.7,145.9h-6l-1.2,3h-3.8l6.4-15.9h3.4l6.3,15.9h-3.8L67.7,145.9z M66.7,143.1l-2-5.4l-2,5.4H66.7z"/>
		<path class="st0" d="M98.3,133c2,0,3.3,0.7,4.1,1.4c0.7,0.6,1.4,1.8,1.4,3.6c0,1-0.2,2.2-1.2,3.3c-0.5,0.5-1.3,1-2.2,1.2l4.9,6.5
			h-4.5l-4.3-6.3v6.3h-3.7V133H98.3z M96.4,140.2h0.8c0.7,0,1.6-0.1,2.2-0.7c0.3-0.3,0.6-0.8,0.6-1.6c0-0.9-0.4-1.4-0.7-1.6
			c-0.6-0.5-1.6-0.5-2-0.5h-0.9V140.2z"/>
		<path class="st0" d="M129.1,133v12.8h4.9v3.1h-8.6V133H129.1z"/>
		<path class="st0" d="M162.5,136.9c-1.2-1.1-2.2-1.1-2.7-1.1c-0.5,0-1.1,0.1-1.6,0.5c-0.2,0.2-0.4,0.6-0.4,1c0,0.4,0.1,0.7,0.4,0.9
			c0.4,0.4,0.9,0.5,2,0.9l1.2,0.5c0.7,0.3,1.6,0.6,2.2,1.2c0.9,0.9,1.2,2,1.2,3c0,1.7-0.6,3.1-1.4,3.9c-1.4,1.5-3.5,1.6-4.5,1.6
			c-1.1,0-2.2-0.2-3.2-0.7c-0.8-0.4-1.7-1.1-2.3-1.7l1.9-2.6c0.4,0.4,1.1,1,1.5,1.2c0.6,0.4,1.3,0.6,2,0.6c0.5,0,1.1-0.1,1.7-0.6
			c0.3-0.3,0.6-0.7,0.6-1.3c0-0.5-0.2-0.9-0.5-1.1c-0.4-0.4-1.4-0.7-1.9-0.9l-1.3-0.5c-0.7-0.3-1.6-0.6-2.2-1.3c-0.8-0.9-1-2-1-2.8
			c0-1.4,0.4-2.6,1.4-3.6c1.1-1.1,2.5-1.5,3.9-1.5c1.1,0,2.9,0.2,4.7,1.6L162.5,136.9z"/>
		<path class="st0" d="M191.2,133c2,0,3.3,0.7,4.1,1.4c0.7,0.6,1.4,1.8,1.4,3.6c0,1-0.2,2.2-1.2,3.3c-0.5,0.5-1.3,1-2.2,1.2l4.9,6.5
			h-4.5l-4.3-6.3v6.3h-3.7V133H191.2z M189.3,140.2h0.8c0.7,0,1.6-0.1,2.2-0.7c0.3-0.3,0.6-0.8,0.6-1.6c0-0.9-0.4-1.4-0.7-1.6
			c-0.6-0.5-1.6-0.5-2-0.5h-0.9V140.2z"/>
		<path class="st0" d="M231.8,142.4c0,1.5-0.2,3.4-1.8,5c-1.5,1.6-3.3,1.8-5,1.8c-1.7,0-3.4-0.2-5-1.8c-1.6-1.6-1.8-3.5-1.8-5V133
			h3.7v9.3c0,0.7,0,1.9,0.8,2.7c0.6,0.7,1.5,0.8,2.2,0.8c0.7,0,1.6-0.1,2.2-0.8c0.8-0.8,0.8-2,0.8-2.7V133h3.7V142.4z"/>
		<path class="st0" d="M257.2,139h6.4V133h3.7v15.9h-3.7v-6.8h-6.4v6.8h-3.7V133h3.7V139z"/>
		<path class="st0" d="M297.9,136.1h-5.3v3.1h5.1v3.1h-5.1v3.5h5.3v3.1h-9V133h9V136.1z"/>
		<path class="st0" d="M32.7,172.4h-6.8l-1.9,4.5h-2l7.3-16.7l7.1,16.7h-2L32.7,172.4z M32,170.7l-2.7-6.4l-2.7,6.4H32z"/>
		<path class="st0" d="M40.3,167H42v1.1c0.2-0.3,0.9-1.3,2.2-1.3c0.5,0,1.1,0.2,1.5,0.4l-0.8,1.6c-0.4-0.3-0.7-0.3-1-0.3
			c-0.7,0-1.1,0.3-1.4,0.6c-0.3,0.4-0.6,1-0.6,2.7v5.2h-1.7V167z"/>
		<path class="st0" d="M51.5,168.5v8.3h-1.7v-8.3h-1.1V167h1.1v-3.6h1.7v3.6h1.7v1.6H51.5z"/>
		<path class="st0" d="M57.6,162c0.7,0,1.2,0.5,1.2,1.2c0,0.7-0.5,1.2-1.2,1.2c-0.7,0-1.2-0.5-1.2-1.2C56.4,162.5,57,162,57.6,162z
			 M58.5,167v9.9h-1.7V167H58.5z"/>
		<path class="st0" d="M65.4,168.5v8.3h-1.7v-8.3h-1V167h1v-3.7c0-1.1,0.1-1.9,0.6-2.6c0.5-0.7,1.4-1.5,3.3-1.5
			c0.8,0,2.4,0.1,3.3,1.5c0.5,0.9,0.6,1.8,0.6,2.6v0.4h-1.7v-0.4c0-0.4,0-1.1-0.3-1.6c-0.3-0.4-0.8-0.8-1.8-0.8
			c-1,0-1.5,0.3-1.8,0.8c-0.3,0.5-0.3,1-0.3,1.6v3.7h2.4v1.6H65.4z M71.4,167v9.9h-1.7V167H71.4z"/>
		<path class="st0" d="M84.4,169.7c-0.9-1.1-2.2-1.5-3.1-1.5c-1.8,0-3.5,1.3-3.5,3.7c0,2.4,1.7,3.7,3.5,3.7c1,0,2.3-0.5,3.2-1.6v2.1
			c-1.1,0.8-2.2,1-3.2,1c-3.1,0-5.3-2.2-5.3-5.2c0-3,2.2-5.3,5.3-5.3c1.6,0,2.6,0.6,3.1,1V169.7z"/>
		<path class="st0" d="M89.8,162c0.7,0,1.2,0.5,1.2,1.2c0,0.7-0.5,1.2-1.2,1.2c-0.7,0-1.2-0.5-1.2-1.2C88.6,162.5,89.2,162,89.8,162
			z M90.7,167v9.9H89V167H90.7z"/>
		<path class="st0" d="M103.5,167h1.7v9.9h-1.7v-1.4c-0.6,0.7-1.6,1.7-3.4,1.7c-2.5,0-4.8-1.8-4.8-5.3c0-3.4,2.3-5.2,4.8-5.2
			c1.9,0,2.9,1,3.4,1.6V167z M97,171.9c0,2.1,1.2,3.7,3.3,3.7c2.1,0,3.3-1.7,3.3-3.7c0-2.6-1.8-3.7-3.3-3.7
			C98.6,168.3,97,169.5,97,171.9z"/>
		<path class="st0" d="M112.1,159.5v17.4h-1.7v-17.4H112.1z"/>
		<path class="st0" d="M126.9,160.9v15.9h-1.8v-15.9H126.9z"/>
		<path class="st0" d="M132.5,167h1.7v1.1c0.3-0.4,1.2-1.4,2.8-1.4c1.2,0,2.2,0.5,2.8,1.4c0.5,0.7,0.6,1.6,0.6,2.7v6.1h-1.7v-6.1
			c0-0.6,0-1.3-0.5-1.8c-0.3-0.4-0.9-0.7-1.6-0.7c-0.6,0-1.2,0.2-1.7,0.8c-0.7,0.8-0.7,2-0.7,2.7v5.2h-1.7V167z"/>
		<path class="st0" d="M147.5,168.5v8.3h-1.7v-8.3h-1.1V167h1.1v-3.6h1.7v3.6h1.7v1.6H147.5z"/>
		<path class="st0" d="M161.5,174.4c-0.3,0.5-0.7,1.1-1.2,1.6c-0.9,0.8-2,1.2-3.3,1.2c-2.4,0-4.9-1.5-4.9-5.2c0-3,1.8-5.3,4.8-5.3
			c1.9,0,3.2,1,3.8,1.8c0.6,0.9,1,2.4,0.9,3.7h-7.7c0,2.1,1.4,3.4,3.2,3.4c0.8,0,1.5-0.2,2-0.7c0.5-0.4,0.8-0.9,1-1.4L161.5,174.4z
			 M159.8,170.8c-0.3-1.6-1.5-2.6-2.9-2.6c-1.5,0-2.7,1.1-2.9,2.6H159.8z"/>
		<path class="st0" d="M167.9,159.5v17.4h-1.7v-17.4H167.9z"/>
		<path class="st0" d="M174.8,159.5v17.4H173v-17.4H174.8z"/>
		<path class="st0" d="M180.8,162c0.7,0,1.2,0.5,1.2,1.2c0,0.7-0.5,1.2-1.2,1.2s-1.2-0.5-1.2-1.2C179.6,162.5,180.1,162,180.8,162z
			 M181.6,167v9.9h-1.7V167H181.6z"/>
		<path class="st0" d="M194.4,167h1.7v9.7c0,1.1,0,2.6-1,3.9c-0.7,1-2.1,1.8-4,1.8c-1.7,0-2.9-0.7-3.5-1.3c-0.7-0.7-1.3-1.7-1.3-3.2
			h1.7c0,0.8,0.3,1.6,0.8,2.1c0.7,0.8,1.6,1,2.4,1c1.2,0,2.1-0.4,2.6-1.4c0.5-0.8,0.5-1.7,0.5-2.5v-1.4c-0.6,0.7-1.6,1.7-3.4,1.7
			c-1.5,0-2.6-0.6-3.4-1.3c-0.7-0.7-1.4-1.9-1.4-3.9c0-1.9,0.7-3.1,1.4-3.8c0.8-0.8,2.1-1.3,3.4-1.3c1.5,0,2.6,0.6,3.4,1.6V167z
			 M189,169.2c-0.8,0.9-1,1.9-1,2.7c0,0.9,0.2,2,1.1,2.9c0.5,0.5,1.2,0.8,2.1,0.8s1.6-0.3,2.2-0.8c0.7-0.6,1.1-1.7,1.1-2.9
			c0-1.2-0.4-2.2-1.1-2.8c-0.5-0.5-1.4-0.9-2.2-0.9C190.2,168.3,189.4,168.7,189,169.2z"/>
		<path class="st0" d="M210.1,174.4c-0.3,0.5-0.7,1.1-1.2,1.6c-0.9,0.8-2,1.2-3.3,1.2c-2.4,0-4.9-1.5-4.9-5.2c0-3,1.8-5.3,4.8-5.3
			c1.9,0,3.2,1,3.8,1.8c0.6,0.9,1,2.4,0.9,3.7h-7.7c0,2.1,1.4,3.4,3.2,3.4c0.8,0,1.5-0.2,2-0.7c0.5-0.4,0.8-0.9,1-1.4L210.1,174.4z
			 M208.4,170.8c-0.3-1.6-1.5-2.6-2.9-2.6c-1.5,0-2.7,1.1-2.9,2.6H208.4z"/>
		<path class="st0" d="M214.7,167h1.7v1.1c0.3-0.4,1.2-1.4,2.8-1.4c1.2,0,2.2,0.5,2.8,1.4c0.5,0.7,0.6,1.6,0.6,2.7v6.1H221v-6.1
			c0-0.6,0-1.3-0.5-1.8c-0.3-0.4-0.9-0.7-1.6-0.7c-0.6,0-1.2,0.2-1.7,0.8c-0.7,0.8-0.7,2-0.7,2.7v5.2h-1.7V167z"/>
		<path class="st0" d="M235.7,169.7c-0.9-1.1-2.2-1.5-3.1-1.5c-1.8,0-3.5,1.3-3.5,3.7c0,2.4,1.7,3.7,3.5,3.7c1,0,2.3-0.5,3.2-1.6
			v2.1c-1.1,0.8-2.2,1-3.2,1c-3.1,0-5.3-2.2-5.3-5.2c0-3,2.2-5.3,5.3-5.3c1.6,0,2.6,0.6,3.1,1V169.7z"/>
		<path class="st0" d="M249.1,174.4c-0.3,0.5-0.7,1.1-1.2,1.6c-0.9,0.8-2,1.2-3.3,1.2c-2.4,0-4.9-1.5-4.9-5.2c0-3,1.8-5.3,4.8-5.3
			c1.9,0,3.2,1,3.8,1.8c0.6,0.9,1,2.4,0.9,3.7h-7.7c0,2.1,1.4,3.4,3.2,3.4c0.8,0,1.5-0.2,2-0.7c0.5-0.4,0.8-0.9,1-1.4L249.1,174.4z
			 M247.4,170.8c-0.3-1.6-1.5-2.6-2.9-2.6c-1.5,0-2.7,1.1-2.9,2.6H247.4z"/>
	</g>
	<g>
		<defs>
			<path id="SVGID_32_" d="M61.2,21.9h11.6v87.4H61.2V104c-4.6,4.5-9.7,6.7-15.5,6.7c-6.9,0-12.6-2.5-17.1-7.6
				c-4.5-5.1-6.8-11.6-6.8-19.2c0-7.5,2.3-13.8,6.8-18.8c4.5-5.1,10.1-7.6,16.9-7.6c5.9,0,11.1,2.4,15.8,7.2V21.9z M33.7,83.9
				c0,4.8,1.3,8.8,3.9,11.8c2.6,3.1,6,4.6,10,4.6c4.3,0,7.8-1.5,10.4-4.4c2.6-3.1,4-7,4-11.7c0-4.7-1.3-8.6-4-11.7
				c-2.6-3-6.1-4.5-10.3-4.5c-4,0-7.3,1.5-10,4.6C35,75.6,33.7,79.4,33.7,83.9z"/>
		</defs>
		<use xlink:href="#SVGID_32_"  style="overflow:visible;fill-rule:evenodd;clip-rule:evenodd;"/>
		<clipPath id="SVGID_1_">
			<use xlink:href="#SVGID_32_"  style="overflow:visible;"/>
		</clipPath>
		<rect y="0" class="st1" width="94.7" height="132.5"/>
	</g>
	<g>
		<defs>
			<path id="SVGID_31_" d="M130.8,86.8h-36c0.3,4.1,1.7,7.4,4,9.9c2.4,2.4,5.4,3.6,9.1,3.6c2.9,0,5.3-0.7,7.2-2.1
				c1.9-1.4,4-3.9,6.3-7.7l9.8,5.5c-1.5,2.6-3.1,4.8-4.8,6.6c-1.7,1.8-3.5,3.4-5.4,4.6c-1.9,1.2-4,2.1-6.2,2.6
				c-2.2,0.6-4.7,0.8-7.3,0.8c-7.5,0-13.5-2.4-18-7.2c-4.5-4.9-6.8-11.3-6.8-19.3c0-8,2.2-14.4,6.6-19.3c4.4-4.9,10.3-7.3,17.6-7.3
				c7.4,0,13.2,2.4,17.5,7.1c4.3,4.7,6.4,11.2,6.4,19.5L130.8,86.8z M118.9,77.3c-1.6-6.2-5.5-9.3-11.7-9.3c-1.4,0-2.7,0.2-4,0.6
				c-1.2,0.4-2.4,1.1-3.4,1.9c-1,0.8-1.9,1.8-2.6,2.9c-0.7,1.1-1.3,2.4-1.6,3.9H118.9z"/>
		</defs>
		<use xlink:href="#SVGID_31_"  style="overflow:visible;fill-rule:evenodd;clip-rule:evenodd;"/>
		<clipPath id="SVGID_2_">
			<use xlink:href="#SVGID_31_"  style="overflow:visible;"/>
		</clipPath>
		<rect x="60.8" y="35.6" class="st2" width="92.3" height="97"/>
	</g>
	<g>
		<defs>
			<path id="SVGID_30_" d="M176,21.9h11.6V63c4.1-3.7,8.7-5.6,13.7-5.6c5.7,0,10.2,1.8,13.6,5.5c2.9,3.2,4.3,8.3,4.3,15.4v30.9
				h-11.6V79.4c0-4-0.7-7-2.1-8.8c-1.4-1.8-3.7-2.7-6.9-2.7c-4.1,0-6.9,1.3-8.6,3.8c-1.6,2.6-2.4,6.9-2.4,13.1v24.4H176V21.9"/>
		</defs>
		<use xlink:href="#SVGID_30_"  style="overflow:visible;fill-rule:evenodd;clip-rule:evenodd;"/>
		<clipPath id="SVGID_3_">
			<use xlink:href="#SVGID_30_"  style="overflow:visible;"/>
		</clipPath>
		<rect x="154.2" class="st3" width="86.9" height="131.1"/>
	</g>
	<g>
		<defs>
			<path id="SVGID_29_" d="M240.9,58.9v28.9c0,8.3,3.3,12.5,9.8,12.5c6.6,0,9.8-4.2,9.8-12.5V58.9h11.6V88c0,4-0.5,7.5-1.5,10.4
				c-1,2.6-2.6,5-5,7.1c-3.9,3.4-8.9,5.1-14.9,5.1c-6,0-11-1.7-14.9-5.1c-2.4-2.1-4.1-4.5-5.1-7.1c-1-2.3-1.4-5.8-1.4-10.4V58.9
				H240.9"/>
		</defs>
		<use xlink:href="#SVGID_29_"  style="overflow:visible;fill-rule:evenodd;clip-rule:evenodd;"/>
		<clipPath id="SVGID_4_">
			<use xlink:href="#SVGID_29_"  style="overflow:visible;"/>
		</clipPath>
		<rect x="207.5" y="37" class="st4" width="86.6" height="95.6"/>
	</g>
	<g>
		<defs>
			<path id="SVGID_28_" d="M294.2,21.9v42.8c4.6-4.8,9.9-7.2,15.8-7.2c6.8,0,12.4,2.5,16.9,7.6c4.5,5,6.8,11.3,6.8,18.8
				c0,7.8-2.3,14.2-6.8,19.2c-4.5,5-10.2,7.6-17.1,7.6c-5.8,0-11-2.2-15.6-6.7v5.3h-11.6V21.9H294.2z M321.8,84.4
				c0-4.8-1.3-8.8-3.9-11.8c-2.6-3.1-6-4.7-9.9-4.7c-4.3,0-7.7,1.5-10.4,4.5c-2.6,3-4,6.8-4,11.6c0,4.9,1.3,8.8,3.9,11.7
				c2.6,3,6,4.5,10.3,4.5c4,0,7.4-1.5,10-4.5C320.5,92.8,321.8,89,321.8,84.4z"/>
		</defs>
		<use xlink:href="#SVGID_28_"  style="overflow:visible;fill-rule:evenodd;clip-rule:evenodd;"/>
		<clipPath id="SVGID_5_">
			<use xlink:href="#SVGID_28_"  style="overflow:visible;"/>
		</clipPath>
		<rect x="260.8" y="0" class="st5" width="94.7" height="132.5"/>
	</g>
	<g>
		<defs>
			<path id="SVGID_27_" d="M147.4,84.1c0-1.7,0.6-3.2,1.8-4.4c1.2-1.2,2.7-1.8,4.4-1.8c1.7,0,3.2,0.6,4.4,1.8
				c1.2,1.2,1.8,2.7,1.8,4.4c0,1.7-0.6,3.2-1.8,4.4c-1.2,1.2-2.7,1.8-4.4,1.8c-1.7,0-3.2-0.6-4.4-1.8
				C148,87.3,147.4,85.8,147.4,84.1"/>
		</defs>
		<use xlink:href="#SVGID_27_"  style="overflow:visible;fill-rule:evenodd;clip-rule:evenodd;fill:#E3000F;"/>
		<clipPath id="SVGID_6_">
			<use xlink:href="#SVGID_27_"  style="overflow:visible;"/>
		</clipPath>
		<rect x="125.5" y="56" class="st6" width="56.2" height="56.2"/>
	</g>
	<g>
		<defs>
			<path id="SVGID_26_" d="M147.4,104.4c0-1.7,0.6-3.2,1.8-4.4c1.2-1.2,2.7-1.8,4.4-1.8c1.7,0,3.2,0.6,4.4,1.8
				c1.2,1.2,1.8,2.7,1.8,4.4c0,1.7-0.6,3.2-1.8,4.4c-1.2,1.2-2.7,1.8-4.4,1.8c-1.7,0-3.2-0.6-4.4-1.8
				C148,107.6,147.4,106.2,147.4,104.4"/>
		</defs>
		<use xlink:href="#SVGID_26_"  style="overflow:visible;fill-rule:evenodd;clip-rule:evenodd;fill:#F8D200;"/>
		<clipPath id="SVGID_7_">
			<use xlink:href="#SVGID_26_"  style="overflow:visible;"/>
		</clipPath>
		<rect x="125.5" y="76.3" class="st7" width="56.2" height="56.2"/>
	</g>
	<g>
		<defs>
			<path id="SVGID_25_" d="M147.4,63.8c0-1.7,0.6-3.2,1.8-4.4c1.2-1.2,2.7-1.8,4.4-1.8c1.7,0,3.2,0.6,4.4,1.8
				c1.2,1.2,1.8,2.7,1.8,4.4c0,1.7-0.6,3.2-1.8,4.4c-1.2,1.2-2.7,1.8-4.4,1.8c-1.7,0-3.2-0.6-4.4-1.8C148,67,147.4,65.5,147.4,63.8"
				/>
		</defs>
		<clipPath id="SVGID_8_">
			<use xlink:href="#SVGID_25_"  style="overflow:visible;"/>
		</clipPath>
		<rect x="125.5" y="35.7" class="st8" width="56.2" height="56.2"/>
	</g>
</g>
</svg>
